<svg width="64" height="64" viewBox="0 0 64 64" fill="none" xmlns="http://www.w3.org/2000/svg">
  <rect width="64" height="64" rx="12" fill="url(#blowingGrad)"/>
  <path d="M40 36C42.5 36 44 34 44 32C44 30 42.5 28 40 28C39.5 28 39 28.2 38.5 28.5C38 26 36 24 33.5 24C31.5 24 30 25.5 29.5 27C28.5 26.5 27.5 26 26 26C23 26 21 28 21 30.5C21 31 21.2 31.5 21.5 32C20.5 32.5 20 33.5 20 34.5C20 36.5 21.5 38 23.5 38H40Z" fill="url(#cloudGrad9)"/>
  <path d="M20 40Q24 42 28 40T36 42" stroke="#E0F0FF" stroke-width="2" fill="none" opacity="0.8"/>
  <circle cx="22" cy="46" r="1.5" fill="#F0F8FF" opacity="0.9"/>
  <circle cx="30" cy="50" r="1.5" fill="#F0F8FF" opacity="0.9"/>
  <circle cx="38" cy="48" r="1.5" fill="#F0F8FF" opacity="0.9"/>
  <defs>
    <linearGradient id="blowingGrad" x1="0" y1="0" x2="64" y2="64">
      <stop offset="0%" stop-color="#C0D0E0"/>
      <stop offset="100%" stop-color="#E0F0FF"/>
    </linearGradient>
    <linearGradient id="cloudGrad9" x1="20" y1="24" x2="44" y2="38">
      <stop offset="0%" stop-color="#F8FCFF"/>
      <stop offset="100%" stop-color="#D8E8F8"/>
    </linearGradient>
  </defs>
</svg>

