<svg width="64" height="64" viewBox="0 0 64 64" fill="none" xmlns="http://www.w3.org/2000/svg">
  <rect width="64" height="64" rx="12" fill="url(#humidityGrad)"/>
  <path d="M32 12C32 12 24 20 24 28C24 34 28 38 32 38C36 38 40 34 40 28C40 20 32 12 32 12Z" fill="url(#dropGrad)"/>
  <path d="M28 40C28 40 22 46 22 52C22 56 26 60 30 60C34 60 38 56 38 52C38 46 32 40 28 40Z" fill="url(#dropGrad2)"/>
  <circle cx="32" cy="20" r="2" fill="#6BA3D8" opacity="0.6"/>
  <circle cx="30" cy="48" r="1.5" fill="#6BA3D8" opacity="0.6"/>
  <defs>
    <linearGradient id="humidityGrad" x1="0" y1="0" x2="64" y2="64">
      <stop offset="0%" stop-color="#6BA3D8"/>
      <stop offset="100%" stop-color="#8BC3E8"/>
    </linearGradient>
    <linearGradient id="dropGrad" x1="24" y1="12" x2="40" y2="38">
      <stop offset="0%" stop-color="#4A93D8"/>
      <stop offset="100%" stop-color="#6BA3E8"/>
    </linearGradient>
    <linearGradient id="dropGrad2" x1="22" y1="40" x2="38" y2="60">
      <stop offset="0%" stop-color="#5A9BD8"/>
      <stop offset="100%" stop-color="#7AB3E8"/>
    </linearGradient>
  </defs>
</svg>

