<svg width="64" height="64" viewBox="0 0 64 64" fill="none" xmlns="http://www.w3.org/2000/svg">
  <rect width="64" height="64" rx="12" fill="url(#rainGrad)"/>
  <path d="M40 36C42.5 36 44 34 44 32C44 30 42.5 28 40 28C39.5 28 39 28.2 38.5 28.5C38 26 36 24 33.5 24C31.5 24 30 25.5 29.5 27C28.5 26.5 27.5 26 26 26C23 26 21 28 21 30.5C21 31 21.2 31.5 21.5 32C20.5 32.5 20 33.5 20 34.5C20 36.5 21.5 38 23.5 38H40Z" fill="url(#cloudGrad4)"/>
  <line x1="28" y1="42" x2="28" y2="48" stroke="#6BA3D8" stroke-width="2" stroke-linecap="round"/>
  <line x1="32" y1="44" x2="32" y2="50" stroke="#6BA3D8" stroke-width="2" stroke-linecap="round"/>
  <line x1="36" y1="42" x2="36" y2="48" stroke="#6BA3D8" stroke-width="2" stroke-linecap="round"/>
  <defs>
    <linearGradient id="rainGrad" x1="0" y1="0" x2="64" y2="64">
      <stop offset="0%" stop-color="#6B8FA8"/>
      <stop offset="100%" stop-color="#8FAFC8"/>
    </linearGradient>
    <linearGradient id="cloudGrad4" x1="20" y1="24" x2="44" y2="38">
      <stop offset="0%" stop-color="#D0DCE8"/>
      <stop offset="100%" stop-color="#A8B8C8"/>
    </linearGradient>
  </defs>
</svg>

