<svg width="64" height="64" viewBox="0 0 64 64" fill="none" xmlns="http://www.w3.org/2000/svg">
  <rect width="64" height="64" rx="12" fill="url(#overcastGrad)"/>
  <path d="M20 38C22.5 38 24 36 24 34C24 32 22.5 30 20 30C19.5 30 19 30.2 18.5 30.5C18 28 16 26 13.5 26C11.5 26 10 27.5 9.5 29C8.5 28.5 7.5 28 6 28C3 28 1 30 1 32.5C1 33 1.2 33.5 1.5 34C0.5 34.5 0 35.5 0 36.5C0 38.5 1.5 40 3.5 40H20Z" fill="url(#cloudGrad2)"/>
  <path d="M50 42C52.5 42 54 40 54 38C54 36 52.5 34 50 34C49.5 34 49 34.2 48.5 34.5C48 32 46 30 43.5 30C41.5 30 40 31.5 39.5 33C38.5 32.5 37.5 32 36 32C33 32 31 34 31 36.5C31 37 31.2 37.5 31.5 38C30.5 38.5 30 39.5 30 40.5C30 42.5 31.5 44 33.5 44H50Z" fill="url(#cloudGrad3)"/>
  <defs>
    <linearGradient id="overcastGrad" x1="0" y1="0" x2="64" y2="64">
      <stop offset="0%" stop-color="#7A8FA3"/>
      <stop offset="100%" stop-color="#9FB0C2"/>
    </linearGradient>
    <linearGradient id="cloudGrad2" x1="0" y1="26" x2="24" y2="40">
      <stop offset="0%" stop-color="#D8E4F0"/>
      <stop offset="100%" stop-color="#B0C4D8"/>
    </linearGradient>
    <linearGradient id="cloudGrad3" x1="30" y1="30" x2="54" y2="44">
      <stop offset="0%" stop-color="#D0DCE8"/>
      <stop offset="100%" stop-color="#A8B8C8"/>
    </linearGradient>
  </defs>
</svg>

