<svg width="64" height="64" viewBox="0 0 64 64" fill="none" xmlns="http://www.w3.org/2000/svg">
  <rect width="64" height="64" rx="12" fill="url(#stormGrad)"/>
  <path d="M40 36C42.5 36 44 34 44 32C44 30 42.5 28 40 28C39.5 28 39 28.2 38.5 28.5C38 26 36 24 33.5 24C31.5 24 30 25.5 29.5 27C28.5 26.5 27.5 26 26 26C23 26 21 28 21 30.5C21 31 21.2 31.5 21.5 32C20.5 32.5 20 33.5 20 34.5C20 36.5 21.5 38 23.5 38H40Z" fill="url(#cloudGrad6)"/>
  <path d="M30 38L26 48H32L28 58" stroke="#FFD700" stroke-width="3" stroke-linecap="round" stroke-linejoin="round" fill="none"/>
  <defs>
    <linearGradient id="stormGrad" x1="0" y1="0" x2="64" y2="64">
      <stop offset="0%" stop-color="#4A5A6A"/>
      <stop offset="100%" stop-color="#6A7A8A"/>
    </linearGradient>
    <linearGradient id="cloudGrad6" x1="20" y1="24" x2="44" y2="38">
      <stop offset="0%" stop-color="#A8B8C8"/>
      <stop offset="100%" stop-color="#708090"/>
    </linearGradient>
  </defs>
</svg>

